<svg xmlns="http://www.w3.org/2000/svg" width="596.774" height="573.166" viewBox="0 0 596.774 573.166">
  <g id="Grupo_989995" data-name="Grupo 989995" transform="translate(-495.714 -1953)">
    <path id="Trazado_677459" data-name="Trazado 677459" d="M7.9,15.51H3.536L2.706,18H.058l4.5-12.086H6.865L11.389,18H8.741ZM4.208,13.493H7.23L5.711,8.969Zm13.2-2.225a6.517,6.517,0,0,0-.863-.066,1.757,1.757,0,0,0-1.785.921V18h-2.4V9.019h2.266l.066,1.071a2.223,2.223,0,0,1,2-1.237,2.514,2.514,0,0,1,.747.108Zm.481,2.158a5.327,5.327,0,0,1,.515-2.382,3.768,3.768,0,0,1,1.482-1.619,4.323,4.323,0,0,1,2.245-.573A4.09,4.09,0,0,1,25.1,9.965a4.464,4.464,0,0,1,1.282,3.021l.017.614a4.694,4.694,0,0,1-1.154,3.316,4.011,4.011,0,0,1-3.1,1.249,4.031,4.031,0,0,1-3.1-1.245,4.777,4.777,0,0,1-1.158-3.387Zm2.4.17a3.357,3.357,0,0,0,.481,1.958,1.73,1.73,0,0,0,2.739.008A3.674,3.674,0,0,0,24,13.422a3.324,3.324,0,0,0-.49-1.945,1.592,1.592,0,0,0-1.378-.69,1.566,1.566,0,0,0-1.361.686A3.735,3.735,0,0,0,20.287,13.6Zm9.836-4.578.075,1a3.156,3.156,0,0,1,2.582-1.17,2.4,2.4,0,0,1,2.382,1.37,3.084,3.084,0,0,1,2.7-1.37,2.679,2.679,0,0,1,2.175.851,3.911,3.911,0,0,1,.714,2.561V18H38.341V12.272a1.71,1.71,0,0,0-.3-1.116,1.324,1.324,0,0,0-1.054-.353,1.5,1.5,0,0,0-1.494,1.029L35.5,18H33.1V12.281a1.689,1.689,0,0,0-.307-1.129A1.337,1.337,0,0,0,31.75,10.8a1.555,1.555,0,0,0-1.478.847V18h-2.4V9.019ZM47.8,18a2.664,2.664,0,0,1-.241-.805,2.9,2.9,0,0,1-2.266.971A3.189,3.189,0,0,1,43.1,17.4a2.456,2.456,0,0,1-.867-1.926,2.538,2.538,0,0,1,1.058-2.191,5.222,5.222,0,0,1,3.059-.772h1.1V12a1.48,1.48,0,0,0-.32-1,1.257,1.257,0,0,0-1.009-.374,1.429,1.429,0,0,0-.95.291.987.987,0,0,0-.344.8h-2.4a2.41,2.41,0,0,1,.481-1.444A3.182,3.182,0,0,1,44.276,9.23a4.961,4.961,0,0,1,1.976-.378,3.92,3.92,0,0,1,2.635.834,2.918,2.918,0,0,1,.975,2.345v3.893a4.294,4.294,0,0,0,.357,1.934V18Zm-1.984-1.668a2.066,2.066,0,0,0,.979-.237,1.554,1.554,0,0,0,.664-.635V13.916h-.9q-1.8,0-1.917,1.245l-.008.141a.96.96,0,0,0,.315.739A1.225,1.225,0,0,0,45.812,16.332Z" transform="translate(770 1991)" fill="#12263f"/>
    <path id="Trazado_677456" data-name="Trazado 677456" d="M7.9,15.51H3.536L2.706,18H.058l4.5-12.086H6.865L11.389,18H8.741ZM4.208,13.493H7.23L5.711,8.969ZM16.1,16.232a1.573,1.573,0,0,0,1.079-.365,1.28,1.28,0,0,0,.432-.971h2.25a3.077,3.077,0,0,1-.5,1.673,3.286,3.286,0,0,1-1.341,1.179,4.2,4.2,0,0,1-1.88.419A3.9,3.9,0,0,1,13.1,16.942a4.845,4.845,0,0,1-1.112-3.383V13.4a4.79,4.79,0,0,1,1.1-3.312,3.854,3.854,0,0,1,3.03-1.237,3.778,3.778,0,0,1,2.7.959,3.4,3.4,0,0,1,1.033,2.552h-2.25a1.648,1.648,0,0,0-.432-1.139,1.6,1.6,0,0,0-2.362.173,3.541,3.541,0,0,0-.427,1.983v.249a3.586,3.586,0,0,0,.423,2A1.463,1.463,0,0,0,16.1,16.232ZM23.757,18H21.35V9.019h2.407ZM21.208,6.694a1.181,1.181,0,0,1,.361-.888,1.556,1.556,0,0,1,1.963,0,1.175,1.175,0,0,1,.365.888,1.178,1.178,0,0,1-.369.9,1.539,1.539,0,0,1-1.951,0A1.178,1.178,0,0,1,21.208,6.694Zm4.15,6.749A5.413,5.413,0,0,1,26.3,10.1a3.057,3.057,0,0,1,2.577-1.245,2.751,2.751,0,0,1,2.167.979V5.25h2.407V18H31.286l-.116-.955a2.823,2.823,0,0,1-2.308,1.121,3.049,3.049,0,0,1-2.544-1.249A5.587,5.587,0,0,1,25.359,13.443Zm2.4.179a3.546,3.546,0,0,0,.44,1.937,1.433,1.433,0,0,0,1.278.673,1.605,1.605,0,0,0,1.569-.939v-3.55a1.582,1.582,0,0,0-1.552-.939Q27.758,10.8,27.758,13.621Zm11.688,4.545a4.409,4.409,0,0,1-3.217-1.212,4.308,4.308,0,0,1-1.241-3.229v-.232a5.426,5.426,0,0,1,.523-2.42,3.838,3.838,0,0,1,1.482-1.644,4.159,4.159,0,0,1,2.187-.577,3.727,3.727,0,0,1,2.9,1.162,4.722,4.722,0,0,1,1.058,3.3v.979H37.42a2.229,2.229,0,0,0,.7,1.411,2.12,2.12,0,0,0,1.482.531,2.589,2.589,0,0,0,2.167-1l1.179,1.32a3.6,3.6,0,0,1-1.461,1.191A4.793,4.793,0,0,1,39.445,18.166Zm-.274-7.379a1.5,1.5,0,0,0-1.158.484,2.5,2.5,0,0,0-.569,1.384h3.337v-.192a1.786,1.786,0,0,0-.432-1.238A1.547,1.547,0,0,0,39.171,10.787Zm8.085,5.279h4.391V18H44.193V16.539l4.225-5.586h-4.1V9.019h7.2v1.413Z" transform="translate(931 2045)" fill="#12263f"/>
    <path id="Trazado_677451" data-name="Trazado 677451" d="M7.9,15.51H3.536L2.706,18H.058l4.5-12.086H6.865L11.389,18H8.741ZM4.208,13.493H7.23L5.711,8.969Zm10.4-4.474.075,1a3.156,3.156,0,0,1,2.582-1.17,2.4,2.4,0,0,1,2.382,1.37,3.084,3.084,0,0,1,2.7-1.37,2.679,2.679,0,0,1,2.175.851,3.911,3.911,0,0,1,.714,2.561V18H22.827V12.272a1.71,1.71,0,0,0-.3-1.116,1.324,1.324,0,0,0-1.054-.353,1.5,1.5,0,0,0-1.494,1.029L19.988,18h-2.4V12.281a1.689,1.689,0,0,0-.307-1.129,1.337,1.337,0,0,0-1.046-.349,1.555,1.555,0,0,0-1.478.847V18h-2.4V9.019ZM32.282,18a2.664,2.664,0,0,1-.241-.805,2.9,2.9,0,0,1-2.266.971,3.189,3.189,0,0,1-2.187-.764,2.456,2.456,0,0,1-.867-1.926,2.538,2.538,0,0,1,1.058-2.191,5.222,5.222,0,0,1,3.059-.772h1.1V12a1.48,1.48,0,0,0-.32-1,1.257,1.257,0,0,0-1.009-.374,1.429,1.429,0,0,0-.95.291.987.987,0,0,0-.344.8h-2.4a2.41,2.41,0,0,1,.481-1.444A3.182,3.182,0,0,1,28.762,9.23a4.961,4.961,0,0,1,1.976-.378,3.92,3.92,0,0,1,2.635.834,2.918,2.918,0,0,1,.975,2.345v3.893a4.294,4.294,0,0,0,.357,1.934V18ZM30.3,16.332a2.066,2.066,0,0,0,.979-.237,1.554,1.554,0,0,0,.664-.635V13.916h-.9q-1.8,0-1.917,1.245l-.008.141a.96.96,0,0,0,.315.739A1.225,1.225,0,0,0,30.3,16.332Zm10.94-5.063a6.517,6.517,0,0,0-.863-.066,1.757,1.757,0,0,0-1.785.921V18h-2.4V9.019h2.266l.066,1.071a2.223,2.223,0,0,1,2-1.237,2.514,2.514,0,0,1,.747.108Zm.805,2.175a5.264,5.264,0,0,1,.984-3.329,3.187,3.187,0,0,1,2.652-1.262,2.8,2.8,0,0,1,2.3,1.013l.1-.847h2.175V17.7a3.839,3.839,0,0,1-.535,2.05,3.439,3.439,0,0,1-1.507,1.328,5.3,5.3,0,0,1-2.274.457,4.925,4.925,0,0,1-1.926-.394,3.418,3.418,0,0,1-1.419-1.017l1.063-1.461a2.81,2.81,0,0,0,2.175,1,2.057,2.057,0,0,0,1.486-.51,1.915,1.915,0,0,0,.531-1.448v-.481a2.775,2.775,0,0,1-2.183.938A3.179,3.179,0,0,1,43.044,16.9a5.262,5.262,0,0,1-1-3.358Zm2.4.179a3.278,3.278,0,0,0,.49,1.916,1.558,1.558,0,0,0,1.345.694,1.666,1.666,0,0,0,1.569-.823V11.626a1.662,1.662,0,0,0-1.552-.823,1.568,1.568,0,0,0-1.357.707A3.694,3.694,0,0,0,44.442,13.621Zm7.28-.2a5.327,5.327,0,0,1,.515-2.382,3.767,3.767,0,0,1,1.482-1.619,4.323,4.323,0,0,1,2.245-.573,4.09,4.09,0,0,1,2.968,1.112,4.464,4.464,0,0,1,1.282,3.021l.017.614a4.694,4.694,0,0,1-1.154,3.316,4.472,4.472,0,0,1-6.2,0,4.777,4.777,0,0,1-1.158-3.387Zm2.4.17a3.357,3.357,0,0,0,.481,1.958,1.73,1.73,0,0,0,2.739.008,3.674,3.674,0,0,0,.49-2.141,3.324,3.324,0,0,0-.49-1.945,1.592,1.592,0,0,0-1.378-.69,1.566,1.566,0,0,0-1.361.686A3.735,3.735,0,0,0,54.121,13.6Zm12.634-2.328a6.517,6.517,0,0,0-.863-.066,1.757,1.757,0,0,0-1.785.921V18h-2.4V9.019h2.266l.066,1.071a2.223,2.223,0,0,1,2-1.237,2.514,2.514,0,0,1,.747.108Z" transform="translate(1013 2176)" fill="#12263f"/>
    <path id="Trazado_677444" data-name="Trazado 677444" d="M7.9,15.51H3.536L2.706,18H.058l4.5-12.086H6.865L11.389,18H8.741ZM4.208,13.493H7.23L5.711,8.969Zm13.016,2.025a.773.773,0,0,0-.436-.693,4.95,4.95,0,0,0-1.4-.452q-3.2-.672-3.2-2.723a2.468,2.468,0,0,1,.992-2,4,4,0,0,1,2.594-.8,4.307,4.307,0,0,1,2.735.805,2.538,2.538,0,0,1,1.025,2.092h-2.4A1.161,1.161,0,0,0,16.8,10.9a1.405,1.405,0,0,0-1.038-.336,1.436,1.436,0,0,0-.938.274.865.865,0,0,0-.332.7.739.739,0,0,0,.378.643,3.885,3.885,0,0,0,1.274.423,10.407,10.407,0,0,1,1.511.4,2.482,2.482,0,0,1,1.9,2.416A2.343,2.343,0,0,1,18.5,17.406a4.548,4.548,0,0,1-2.723.76,4.75,4.75,0,0,1-2-.4,3.363,3.363,0,0,1-1.374-1.1,2.565,2.565,0,0,1-.5-1.515h2.274a1.252,1.252,0,0,0,.473.979,1.877,1.877,0,0,0,1.179.34,1.737,1.737,0,0,0,1.042-.261A.814.814,0,0,0,17.224,15.518Zm6.749-8.708V9.019h1.536v1.76H23.973v4.482a1.07,1.07,0,0,0,.191.714.959.959,0,0,0,.73.216,3.826,3.826,0,0,0,.706-.058V17.95a4.938,4.938,0,0,1-1.453.216,2.29,2.29,0,0,1-2.573-2.548V10.778H20.262V9.019h1.312V6.811Zm7.919,4.458a6.517,6.517,0,0,0-.863-.066,1.757,1.757,0,0,0-1.785.921V18h-2.4V9.019h2.266l.066,1.071a2.223,2.223,0,0,1,2-1.237,2.514,2.514,0,0,1,.747.108ZM35.577,18H33.17V9.019h2.407ZM33.029,6.694a1.181,1.181,0,0,1,.361-.888,1.556,1.556,0,0,1,1.963,0,1.175,1.175,0,0,1,.365.888,1.178,1.178,0,0,1-.369.9,1.539,1.539,0,0,1-1.951,0A1.178,1.178,0,0,1,33.029,6.694Zm6.732,2.324.075,1.038a3.136,3.136,0,0,1,2.582-1.2,2.606,2.606,0,0,1,2.125.838,3.912,3.912,0,0,1,.714,2.507V18h-2.4V12.256a1.556,1.556,0,0,0-.332-1.108,1.486,1.486,0,0,0-1.1-.344,1.65,1.65,0,0,0-1.519.863V18H37.5V9.019Zm6.964,4.424a5.264,5.264,0,0,1,.984-3.329,3.187,3.187,0,0,1,2.652-1.262,2.8,2.8,0,0,1,2.3,1.013l.1-.847h2.175V17.7a3.839,3.839,0,0,1-.535,2.05,3.439,3.439,0,0,1-1.507,1.328,5.3,5.3,0,0,1-2.274.457,4.925,4.925,0,0,1-1.926-.394,3.418,3.418,0,0,1-1.419-1.017l1.063-1.461a2.81,2.81,0,0,0,2.175,1A2.057,2.057,0,0,0,52,19.158a1.915,1.915,0,0,0,.531-1.448v-.481a2.775,2.775,0,0,1-2.183.938A3.179,3.179,0,0,1,47.725,16.9a5.262,5.262,0,0,1-1-3.358Zm2.4.179a3.278,3.278,0,0,0,.49,1.916,1.558,1.558,0,0,0,1.345.694,1.666,1.666,0,0,0,1.569-.823V11.626a1.662,1.662,0,0,0-1.552-.823,1.568,1.568,0,0,0-1.357.707A3.694,3.694,0,0,0,49.124,13.621Zm11.787,4.545a4.409,4.409,0,0,1-3.217-1.212,4.308,4.308,0,0,1-1.241-3.229v-.232a5.426,5.426,0,0,1,.523-2.42,3.838,3.838,0,0,1,1.482-1.644,4.159,4.159,0,0,1,2.187-.577,3.727,3.727,0,0,1,2.9,1.162,4.722,4.722,0,0,1,1.058,3.3v.979H58.886a2.229,2.229,0,0,0,.7,1.411,2.12,2.12,0,0,0,1.482.531,2.589,2.589,0,0,0,2.167-1l1.179,1.32a3.6,3.6,0,0,1-1.461,1.191A4.793,4.793,0,0,1,60.911,18.166Zm-.274-7.379a1.5,1.5,0,0,0-1.158.484,2.5,2.5,0,0,0-.569,1.384h3.337v-.192a1.786,1.786,0,0,0-.432-1.238A1.547,1.547,0,0,0,60.637,10.787Zm7.537-1.768.075,1.038a3.136,3.136,0,0,1,2.582-1.2,2.606,2.606,0,0,1,2.125.838,3.912,3.912,0,0,1,.714,2.507V18h-2.4V12.256a1.556,1.556,0,0,0-.332-1.108,1.486,1.486,0,0,0-1.1-.344,1.65,1.65,0,0,0-1.519.863V18h-2.4V9.019Zm11.048,7.213a1.573,1.573,0,0,0,1.079-.365,1.28,1.28,0,0,0,.432-.971h2.25a3.077,3.077,0,0,1-.5,1.673,3.286,3.286,0,0,1-1.341,1.179,4.2,4.2,0,0,1-1.88.419,3.9,3.9,0,0,1-3.038-1.224,4.845,4.845,0,0,1-1.112-3.383V13.4a4.79,4.79,0,0,1,1.1-3.312,3.854,3.854,0,0,1,3.03-1.237,3.778,3.778,0,0,1,2.7.959,3.4,3.4,0,0,1,1.033,2.552h-2.25a1.648,1.648,0,0,0-.432-1.139,1.6,1.6,0,0,0-2.362.173,3.541,3.541,0,0,0-.427,1.983v.249a3.586,3.586,0,0,0,.423,2A1.463,1.463,0,0,0,79.223,16.232ZM86.884,18H84.477V9.019h2.407ZM84.336,6.694a1.181,1.181,0,0,1,.361-.888,1.556,1.556,0,0,1,1.963,0,1.175,1.175,0,0,1,.365.888,1.178,1.178,0,0,1-.369.9,1.539,1.539,0,0,1-1.951,0A1.178,1.178,0,0,1,84.336,6.694ZM94.064,18a2.664,2.664,0,0,1-.241-.805,2.9,2.9,0,0,1-2.266.971A3.189,3.189,0,0,1,89.37,17.4a2.456,2.456,0,0,1-.867-1.926,2.538,2.538,0,0,1,1.058-2.191,5.222,5.222,0,0,1,3.059-.772h1.1V12a1.48,1.48,0,0,0-.32-1,1.257,1.257,0,0,0-1.009-.374,1.429,1.429,0,0,0-.95.291.987.987,0,0,0-.344.8H88.7a2.41,2.41,0,0,1,.481-1.444A3.182,3.182,0,0,1,90.545,9.23a4.961,4.961,0,0,1,1.976-.378,3.92,3.92,0,0,1,2.635.834,2.918,2.918,0,0,1,.975,2.345v3.893a4.294,4.294,0,0,0,.357,1.934V18Zm-1.984-1.668a2.066,2.066,0,0,0,.979-.237,1.554,1.554,0,0,0,.664-.635V13.916h-.9q-1.8,0-1.917,1.245L90.9,15.3a.96.96,0,0,0,.315.739A1.225,1.225,0,0,0,92.081,16.332Z" transform="translate(996 2340)" fill="#12263f"/>
    <path id="Trazado_677439" data-name="Trazado 677439" d="M1.079,18V5.914H4.8a5.647,5.647,0,0,1,2.851.718A5.007,5.007,0,0,1,9.612,8.674a6.3,6.3,0,0,1,.706,3.009v.556a6.316,6.316,0,0,1-.693,3A4.964,4.964,0,0,1,7.67,17.27,5.69,5.69,0,0,1,4.823,18ZM3.569,7.931V16h1.2a2.7,2.7,0,0,0,2.233-.955,4.314,4.314,0,0,0,.789-2.731v-.639a4.382,4.382,0,0,0-.764-2.793A2.7,2.7,0,0,0,4.8,7.931ZM16.1,18.166a4.409,4.409,0,0,1-3.217-1.212,4.308,4.308,0,0,1-1.241-3.229v-.232a5.426,5.426,0,0,1,.523-2.42,3.838,3.838,0,0,1,1.482-1.644,4.159,4.159,0,0,1,2.187-.577,3.727,3.727,0,0,1,2.9,1.162,4.722,4.722,0,0,1,1.058,3.3v.979H14.078a2.229,2.229,0,0,0,.7,1.411,2.12,2.12,0,0,0,1.482.531,2.589,2.589,0,0,0,2.167-1l1.179,1.32a3.6,3.6,0,0,1-1.461,1.191A4.793,4.793,0,0,1,16.1,18.166Zm-.274-7.379a1.5,1.5,0,0,0-1.158.484,2.5,2.5,0,0,0-.569,1.384H17.44v-.192a1.786,1.786,0,0,0-.432-1.238A1.547,1.547,0,0,0,15.83,10.787ZM21.814,18V10.778H20.478V9.019h1.336V8.255a3.1,3.1,0,0,1,.867-2.345,3.359,3.359,0,0,1,2.428-.834,5.608,5.608,0,0,1,1.22.166L26.305,7.1a3.058,3.058,0,0,0-.73-.075q-1.353,0-1.353,1.27v.722h1.785v1.76H24.222V18Zm9.571.166a4.409,4.409,0,0,1-3.217-1.212,4.308,4.308,0,0,1-1.241-3.229v-.232a5.426,5.426,0,0,1,.523-2.42,3.838,3.838,0,0,1,1.482-1.644,4.159,4.159,0,0,1,2.187-.577,3.727,3.727,0,0,1,2.9,1.162,4.722,4.722,0,0,1,1.058,3.3v.979H29.36a2.229,2.229,0,0,0,.7,1.411,2.12,2.12,0,0,0,1.482.531,2.589,2.589,0,0,0,2.167-1l1.179,1.32a3.6,3.6,0,0,1-1.461,1.191A4.793,4.793,0,0,1,31.385,18.166Zm-.274-7.379a1.5,1.5,0,0,0-1.158.484,2.5,2.5,0,0,0-.569,1.384h3.337v-.192a1.786,1.786,0,0,0-.432-1.238A1.547,1.547,0,0,0,31.111,10.787Zm9.064,5.445a1.573,1.573,0,0,0,1.079-.365,1.28,1.28,0,0,0,.432-.971h2.25a3.077,3.077,0,0,1-.5,1.673A3.286,3.286,0,0,1,42.1,17.747a4.2,4.2,0,0,1-1.88.419,3.9,3.9,0,0,1-3.038-1.224,4.845,4.845,0,0,1-1.112-3.383V13.4a4.79,4.79,0,0,1,1.1-3.312A3.854,3.854,0,0,1,40.2,8.853a3.778,3.778,0,0,1,2.7.959,3.4,3.4,0,0,1,1.033,2.552h-2.25a1.648,1.648,0,0,0-.432-1.139,1.6,1.6,0,0,0-2.362.173,3.541,3.541,0,0,0-.427,1.983v.249a3.586,3.586,0,0,0,.423,2A1.463,1.463,0,0,0,40.176,16.232Zm8-9.421V9.019h1.536v1.76H48.178v4.482a1.07,1.07,0,0,0,.191.714.959.959,0,0,0,.73.216,3.826,3.826,0,0,0,.706-.058V17.95a4.939,4.939,0,0,1-1.453.216,2.29,2.29,0,0,1-2.573-2.548V10.778H44.467V9.019h1.312V6.811Zm2.25,6.616a5.327,5.327,0,0,1,.515-2.382,3.767,3.767,0,0,1,1.482-1.619,4.323,4.323,0,0,1,2.245-.573,4.09,4.09,0,0,1,2.968,1.112,4.464,4.464,0,0,1,1.282,3.021l.017.614a4.694,4.694,0,0,1-1.154,3.316,4.472,4.472,0,0,1-6.2,0,4.777,4.777,0,0,1-1.158-3.387Zm2.4.17a3.357,3.357,0,0,0,.481,1.958,1.73,1.73,0,0,0,2.739.008,3.674,3.674,0,0,0,.49-2.141,3.324,3.324,0,0,0-.49-1.945,1.592,1.592,0,0,0-1.378-.69,1.566,1.566,0,0,0-1.361.686A3.735,3.735,0,0,0,52.826,13.6Zm12.451,1.922a.773.773,0,0,0-.436-.693,4.95,4.95,0,0,0-1.4-.452q-3.2-.672-3.2-2.723a2.468,2.468,0,0,1,.992-2,4,4,0,0,1,2.594-.8,4.307,4.307,0,0,1,2.735.805,2.538,2.538,0,0,1,1.025,2.092h-2.4a1.161,1.161,0,0,0-.332-.851,1.405,1.405,0,0,0-1.038-.336,1.436,1.436,0,0,0-.938.274.865.865,0,0,0-.332.7.739.739,0,0,0,.378.643A3.885,3.885,0,0,0,64.2,12.6a10.407,10.407,0,0,1,1.511.4,2.482,2.482,0,0,1,1.9,2.416,2.343,2.343,0,0,1-1.054,1.988,4.548,4.548,0,0,1-2.723.76,4.75,4.75,0,0,1-2-.4,3.363,3.363,0,0,1-1.374-1.1,2.565,2.565,0,0,1-.5-1.515h2.274a1.252,1.252,0,0,0,.473.979,1.877,1.877,0,0,0,1.179.34,1.737,1.737,0,0,0,1.042-.261A.814.814,0,0,0,65.277,15.518Z" transform="translate(919 2473)" fill="#12263f"/>
    <path id="Trazado_677441" data-name="Trazado 677441" d="M8.351,13.061H3.569V18H1.079V5.914H8.948V7.931H3.569v3.121H8.351Zm6.715-1.793A6.517,6.517,0,0,0,14.2,11.2a1.757,1.757,0,0,0-1.785.921V18h-2.4V9.019h2.266l.066,1.071a2.223,2.223,0,0,1,2-1.237,2.514,2.514,0,0,1,.747.108ZM21.6,17.087a3.008,3.008,0,0,1-2.457,1.079,2.837,2.837,0,0,1-2.2-.83,3.543,3.543,0,0,1-.776-2.432V9.019h2.4v5.809q0,1.4,1.278,1.4a1.732,1.732,0,0,0,1.677-.848V9.019h2.407V18H21.665ZM28.6,6.811V9.019H30.14v1.76H28.6v4.482a1.07,1.07,0,0,0,.191.714.959.959,0,0,0,.73.216,3.826,3.826,0,0,0,.706-.058V17.95a4.938,4.938,0,0,1-1.453.216,2.29,2.29,0,0,1-2.573-2.548V10.778H24.894V9.019h1.312V6.811ZM36.681,18a2.664,2.664,0,0,1-.241-.805,2.9,2.9,0,0,1-2.266.971,3.189,3.189,0,0,1-2.187-.764,2.456,2.456,0,0,1-.867-1.926,2.538,2.538,0,0,1,1.058-2.191,5.222,5.222,0,0,1,3.059-.772h1.1V12a1.48,1.48,0,0,0-.32-1,1.257,1.257,0,0,0-1.009-.374,1.429,1.429,0,0,0-.95.291.987.987,0,0,0-.344.8h-2.4a2.41,2.41,0,0,1,.481-1.444A3.182,3.182,0,0,1,33.162,9.23a4.961,4.961,0,0,1,1.976-.378,3.92,3.92,0,0,1,2.635.834,2.918,2.918,0,0,1,.975,2.345v3.893a4.294,4.294,0,0,0,.357,1.934V18ZM34.7,16.332a2.066,2.066,0,0,0,.979-.237,1.554,1.554,0,0,0,.664-.635V13.916h-.9q-1.8,0-1.917,1.245l-.008.141a.96.96,0,0,0,.315.739A1.225,1.225,0,0,0,34.7,16.332ZM43.123,18H40.715V5.25h2.407Z" transform="translate(778 2508)" fill="#12263f"/>
    <path id="Trazado_677446" data-name="Trazado 677446" d="M10.907,18H8.417L3.569,10.048V18H1.079V5.914h2.49l4.856,7.969V5.914h2.482Zm7.4-.913a3.008,3.008,0,0,1-2.457,1.079,2.837,2.837,0,0,1-2.2-.83,3.543,3.543,0,0,1-.776-2.432V9.019h2.4v5.809q0,1.4,1.278,1.4a1.732,1.732,0,0,0,1.677-.848V9.019h2.407V18H18.37Zm8.268,1.079a4.409,4.409,0,0,1-3.217-1.212,4.308,4.308,0,0,1-1.241-3.229v-.232a5.426,5.426,0,0,1,.523-2.42,3.838,3.838,0,0,1,1.482-1.644,4.159,4.159,0,0,1,2.187-.577,3.727,3.727,0,0,1,2.9,1.162,4.722,4.722,0,0,1,1.058,3.3v.979H24.545a2.229,2.229,0,0,0,.7,1.411,2.12,2.12,0,0,0,1.482.531,2.589,2.589,0,0,0,2.167-1l1.179,1.32a3.6,3.6,0,0,1-1.461,1.191A4.793,4.793,0,0,1,26.571,18.166ZM26.3,10.787a1.5,1.5,0,0,0-1.158.484,2.5,2.5,0,0,0-.569,1.384h3.337v-.192a1.786,1.786,0,0,0-.432-1.238A1.547,1.547,0,0,0,26.3,10.787Zm8.085,5.279h4.391V18H31.319V16.539l4.225-5.586h-4.1V9.019h7.2v1.413Z" transform="translate(624 2473)" fill="#12263f"/>
    <path id="Trazado_677448" data-name="Trazado 677448" d="M8.351,13.061H3.569V18H1.079V5.914H8.948V7.931H3.569v3.121H8.351ZM12.767,18H10.359V5.25h2.407Zm1.6-4.574a5.327,5.327,0,0,1,.515-2.382,3.768,3.768,0,0,1,1.482-1.619,4.323,4.323,0,0,1,2.245-.573,4.09,4.09,0,0,1,2.968,1.112,4.464,4.464,0,0,1,1.282,3.021l.017.614a4.694,4.694,0,0,1-1.154,3.316,4.011,4.011,0,0,1-3.1,1.249,4.031,4.031,0,0,1-3.1-1.245,4.777,4.777,0,0,1-1.158-3.387Zm2.4.17a3.357,3.357,0,0,0,.481,1.958,1.73,1.73,0,0,0,2.739.008,3.674,3.674,0,0,0,.49-2.141,3.324,3.324,0,0,0-.49-1.945,1.592,1.592,0,0,0-1.378-.69,1.566,1.566,0,0,0-1.361.686A3.735,3.735,0,0,0,16.768,13.6ZM29.4,11.268a6.517,6.517,0,0,0-.863-.066,1.757,1.757,0,0,0-1.785.921V18h-2.4V9.019h2.266l.066,1.071a2.223,2.223,0,0,1,2-1.237,2.514,2.514,0,0,1,.747.108ZM35.511,18a2.664,2.664,0,0,1-.241-.805A2.9,2.9,0,0,1,33,18.166a3.189,3.189,0,0,1-2.187-.764,2.456,2.456,0,0,1-.867-1.926,2.538,2.538,0,0,1,1.058-2.191,5.222,5.222,0,0,1,3.059-.772h1.1V12a1.48,1.48,0,0,0-.32-1,1.257,1.257,0,0,0-1.009-.374,1.429,1.429,0,0,0-.95.291.987.987,0,0,0-.344.8h-2.4a2.41,2.41,0,0,1,.481-1.444A3.182,3.182,0,0,1,31.991,9.23a4.961,4.961,0,0,1,1.976-.378,3.92,3.92,0,0,1,2.635.834,2.918,2.918,0,0,1,.975,2.345v3.893a4.294,4.294,0,0,0,.357,1.934V18Zm-1.984-1.668a2.066,2.066,0,0,0,.979-.237,1.554,1.554,0,0,0,.664-.635V13.916h-.9q-1.8,0-1.917,1.245l-.008.141a.96.96,0,0,0,.315.739A1.225,1.225,0,0,0,33.527,16.332ZM41.952,18H39.545V5.25h2.407Z" transform="translate(524 2340)" fill="#12263f"/>
    <path id="Trazado_677452" data-name="Trazado 677452" d="M10.567,13.974a4.277,4.277,0,0,1-1.44,3.071A5.058,5.058,0,0,1,5.7,18.166,4.548,4.548,0,0,1,2.046,16.6a6.416,6.416,0,0,1-1.332-4.3v-.739A7.245,7.245,0,0,1,1.328,8.5,4.6,4.6,0,0,1,3.084,6.458a4.918,4.918,0,0,1,2.652-.71,4.927,4.927,0,0,1,3.37,1.121,4.6,4.6,0,0,1,1.478,3.146H8.093a2.524,2.524,0,0,0-.652-1.7A2.413,2.413,0,0,0,5.736,7.79a2.116,2.116,0,0,0-1.864.892,5,5,0,0,0-.635,2.768v.913a5.352,5.352,0,0,0,.594,2.864,2.077,2.077,0,0,0,1.872.9,2.458,2.458,0,0,0,1.722-.527,2.381,2.381,0,0,0,.652-1.631Zm6.524-2.706a6.517,6.517,0,0,0-.863-.066,1.757,1.757,0,0,0-1.785.921V18h-2.4V9.019h2.266l.066,1.071a2.223,2.223,0,0,1,2-1.237,2.514,2.514,0,0,1,.747.108Zm6.533,5.819a3.008,3.008,0,0,1-2.457,1.079,2.837,2.837,0,0,1-2.2-.83,3.543,3.543,0,0,1-.776-2.432V9.019h2.4v5.809q0,1.4,1.278,1.4a1.732,1.732,0,0,0,1.677-.848V9.019h2.407V18H23.69Zm3.76-3.644a5.413,5.413,0,0,1,.942-3.345A3.057,3.057,0,0,1,30.9,8.853a2.751,2.751,0,0,1,2.167.979V5.25h2.407V18H33.311l-.116-.955a2.823,2.823,0,0,1-2.308,1.121,3.049,3.049,0,0,1-2.544-1.249A5.587,5.587,0,0,1,27.384,13.443Zm2.4.179a3.546,3.546,0,0,0,.44,1.937,1.433,1.433,0,0,0,1.278.673,1.605,1.605,0,0,0,1.569-.939v-3.55a1.582,1.582,0,0,0-1.552-.939Q29.783,10.8,29.783,13.621Zm7.18-.2a5.327,5.327,0,0,1,.515-2.382A3.767,3.767,0,0,1,38.96,9.425a4.323,4.323,0,0,1,2.245-.573,4.09,4.09,0,0,1,2.968,1.112,4.464,4.464,0,0,1,1.282,3.021l.017.614a4.694,4.694,0,0,1-1.154,3.316,4.472,4.472,0,0,1-6.2,0,4.777,4.777,0,0,1-1.158-3.387Zm2.4.17a3.357,3.357,0,0,0,.481,1.958,1.73,1.73,0,0,0,2.739.008,3.674,3.674,0,0,0,.49-2.141,3.324,3.324,0,0,0-.49-1.945,1.592,1.592,0,0,0-1.378-.69,1.566,1.566,0,0,0-1.361.686A3.735,3.735,0,0,0,39.362,13.6ZM54.544,15.07l1.668-6.051H58.72L55.69,18H53.4l-3.03-8.981h2.507Zm9.363,3.1a4.409,4.409,0,0,1-3.217-1.212,4.308,4.308,0,0,1-1.241-3.229v-.232a5.426,5.426,0,0,1,.523-2.42,3.838,3.838,0,0,1,1.482-1.644,4.159,4.159,0,0,1,2.187-.577,3.727,3.727,0,0,1,2.9,1.162,4.722,4.722,0,0,1,1.058,3.3v.979H61.882a2.229,2.229,0,0,0,.7,1.411,2.12,2.12,0,0,0,1.482.531,2.589,2.589,0,0,0,2.167-1l1.179,1.32a3.6,3.6,0,0,1-1.461,1.191A4.793,4.793,0,0,1,63.908,18.166Zm-.274-7.379a1.5,1.5,0,0,0-1.158.484,2.5,2.5,0,0,0-.569,1.384h3.337v-.192a1.786,1.786,0,0,0-.432-1.238A1.547,1.547,0,0,0,63.634,10.787Zm10.376.481a6.517,6.517,0,0,0-.863-.066,1.757,1.757,0,0,0-1.785.921V18h-2.4V9.019h2.266l.066,1.071a2.223,2.223,0,0,1,2-1.237,2.514,2.514,0,0,1,.747.108Zm.78,2.175a5.413,5.413,0,0,1,.942-3.345A3.057,3.057,0,0,1,78.31,8.853a2.751,2.751,0,0,1,2.167.979V5.25h2.407V18H80.717l-.116-.955a2.823,2.823,0,0,1-2.308,1.121,3.049,3.049,0,0,1-2.544-1.249A5.587,5.587,0,0,1,74.79,13.443Zm2.4.179a3.546,3.546,0,0,0,.44,1.937,1.433,1.433,0,0,0,1.278.673,1.605,1.605,0,0,0,1.569-.939v-3.55a1.582,1.582,0,0,0-1.552-.939Q77.189,10.8,77.189,13.621Zm11.688,4.545a4.409,4.409,0,0,1-3.217-1.212,4.308,4.308,0,0,1-1.241-3.229v-.232a5.426,5.426,0,0,1,.523-2.42,3.838,3.838,0,0,1,1.482-1.644,4.159,4.159,0,0,1,2.187-.577,3.727,3.727,0,0,1,2.9,1.162,4.722,4.722,0,0,1,1.058,3.3v.979H86.851a2.229,2.229,0,0,0,.7,1.411,2.12,2.12,0,0,0,1.482.531,2.589,2.589,0,0,0,2.167-1l1.179,1.32a3.6,3.6,0,0,1-1.461,1.191A4.793,4.793,0,0,1,88.876,18.166ZM88.6,10.787a1.5,1.5,0,0,0-1.158.484,2.5,2.5,0,0,0-.569,1.384h3.337v-.192a1.786,1.786,0,0,0-.432-1.238A1.547,1.547,0,0,0,88.6,10.787Z" transform="translate(495 2176)" fill="#12263f"/>
    <path id="Trazado_677457" data-name="Trazado 677457" d="M10.567,13.974a4.277,4.277,0,0,1-1.44,3.071A5.058,5.058,0,0,1,5.7,18.166,4.548,4.548,0,0,1,2.046,16.6a6.416,6.416,0,0,1-1.332-4.3v-.739A7.245,7.245,0,0,1,1.328,8.5,4.6,4.6,0,0,1,3.084,6.458a4.918,4.918,0,0,1,2.652-.71,4.927,4.927,0,0,1,3.37,1.121,4.6,4.6,0,0,1,1.478,3.146H8.093a2.524,2.524,0,0,0-.652-1.7A2.413,2.413,0,0,0,5.736,7.79a2.116,2.116,0,0,0-1.864.892,5,5,0,0,0-.635,2.768v.913a5.352,5.352,0,0,0,.594,2.864,2.077,2.077,0,0,0,1.872.9,2.458,2.458,0,0,0,1.722-.527,2.381,2.381,0,0,0,.652-1.631ZM17.249,18a2.664,2.664,0,0,1-.241-.805,2.9,2.9,0,0,1-2.266.971,3.189,3.189,0,0,1-2.187-.764,2.456,2.456,0,0,1-.867-1.926,2.538,2.538,0,0,1,1.058-2.191,5.222,5.222,0,0,1,3.059-.772h1.1V12a1.48,1.48,0,0,0-.32-1,1.257,1.257,0,0,0-1.009-.374,1.429,1.429,0,0,0-.95.291.987.987,0,0,0-.344.8h-2.4a2.41,2.41,0,0,1,.481-1.444A3.182,3.182,0,0,1,13.729,9.23a4.961,4.961,0,0,1,1.976-.378,3.92,3.92,0,0,1,2.635.834,2.918,2.918,0,0,1,.975,2.345v3.893a4.294,4.294,0,0,0,.357,1.934V18Zm-1.984-1.668a2.066,2.066,0,0,0,.979-.237,1.554,1.554,0,0,0,.664-.635V13.916h-.9q-1.8,0-1.917,1.245l-.008.141a.96.96,0,0,0,.315.739A1.225,1.225,0,0,0,15.265,16.332ZM23.69,18H21.283V5.25H23.69ZM28.2,18H25.791V9.019H28.2ZM25.649,6.694a1.181,1.181,0,0,1,.361-.888,1.556,1.556,0,0,1,1.963,0,1.175,1.175,0,0,1,.365.888,1.178,1.178,0,0,1-.369.9,1.539,1.539,0,0,1-1.951,0A1.178,1.178,0,0,1,25.649,6.694Zm4.15,6.749a5.413,5.413,0,0,1,.942-3.345,3.057,3.057,0,0,1,2.577-1.245,2.751,2.751,0,0,1,2.167.979V5.25h2.407V18H35.727l-.116-.955A2.823,2.823,0,0,1,33.3,18.166a3.049,3.049,0,0,1-2.544-1.249A5.587,5.587,0,0,1,29.8,13.443Zm2.4.179a3.546,3.546,0,0,0,.44,1.937,1.433,1.433,0,0,0,1.278.673,1.605,1.605,0,0,0,1.569-.939v-3.55a1.582,1.582,0,0,0-1.552-.939Q32.2,10.8,32.2,13.621ZM44.957,18a2.664,2.664,0,0,1-.241-.805,2.9,2.9,0,0,1-2.266.971,3.189,3.189,0,0,1-2.187-.764,2.456,2.456,0,0,1-.867-1.926,2.538,2.538,0,0,1,1.058-2.191,5.222,5.222,0,0,1,3.059-.772h1.1V12a1.48,1.48,0,0,0-.32-1,1.257,1.257,0,0,0-1.009-.374,1.429,1.429,0,0,0-.95.291.987.987,0,0,0-.344.8h-2.4a2.41,2.41,0,0,1,.481-1.444A3.182,3.182,0,0,1,41.438,9.23a4.961,4.961,0,0,1,1.976-.378,3.92,3.92,0,0,1,2.635.834,2.918,2.918,0,0,1,.975,2.345v3.893a4.294,4.294,0,0,0,.357,1.934V18Zm-1.984-1.668a2.066,2.066,0,0,0,.979-.237,1.554,1.554,0,0,0,.664-.635V13.916h-.9q-1.8,0-1.917,1.245l-.008.141a.96.96,0,0,0,.315.739A1.225,1.225,0,0,0,42.973,16.332Zm5.52-2.889a5.413,5.413,0,0,1,.942-3.345,3.057,3.057,0,0,1,2.577-1.245,2.751,2.751,0,0,1,2.167.979V5.25h2.407V18H54.42l-.116-.955A2.823,2.823,0,0,1,52,18.166a3.049,3.049,0,0,1-2.544-1.249A5.587,5.587,0,0,1,48.493,13.443Zm2.4.179a3.546,3.546,0,0,0,.44,1.937,1.433,1.433,0,0,0,1.278.673,1.605,1.605,0,0,0,1.569-.939v-3.55a1.582,1.582,0,0,0-1.552-.939Q50.892,10.8,50.892,13.621Z" transform="translate(615 2045)" fill="#12263f"/>
    <path id="Trazado_677458" data-name="Trazado 677458" d="M6.649,18H4.25V8.753l-2.864.888V7.69L6.392,5.9h.257ZM18.71,13a6.123,6.123,0,0,1-1.038,3.835,3.622,3.622,0,0,1-3.038,1.328,3.647,3.647,0,0,1-3.021-1.3,5.943,5.943,0,0,1-1.071-3.735V10.9a6.042,6.042,0,0,1,1.05-3.843,3.649,3.649,0,0,1,3.026-1.312,3.652,3.652,0,0,1,3.021,1.3,5.925,5.925,0,0,1,1.071,3.731Zm-2.4-2.446A4.426,4.426,0,0,0,15.9,8.368a1.389,1.389,0,0,0-1.282-.685,1.364,1.364,0,0,0-1.249.652,4.142,4.142,0,0,0-.427,2.04v2.941a4.646,4.646,0,0,0,.4,2.2,1.37,1.37,0,0,0,1.291.719,1.347,1.347,0,0,0,1.27-.69,4.535,4.535,0,0,0,.407-2.11Z" transform="translate(776 2045)" fill="#12263f"/>
    <path id="Trazado_677455" data-name="Trazado 677455" d="M8.7,9.126a2.811,2.811,0,0,1-.44,1.561,3.166,3.166,0,0,1-1.212,1.087,3.5,3.5,0,0,1,1.395,1.166,2.992,2.992,0,0,1,.515,1.747,3.168,3.168,0,0,1-1.1,2.544,4.445,4.445,0,0,1-2.98.934,4.465,4.465,0,0,1-2.988-.938,3.16,3.16,0,0,1-1.1-2.54A3.011,3.011,0,0,1,1.3,12.937a3.442,3.442,0,0,1,1.386-1.162,3.134,3.134,0,0,1-1.208-1.087,2.831,2.831,0,0,1-.436-1.561A3.133,3.133,0,0,1,2.075,6.665a4.052,4.052,0,0,1,2.8-.917,4.079,4.079,0,0,1,2.793.909A3.121,3.121,0,0,1,8.7,9.126Zm-2.15,5.387a1.74,1.74,0,0,0-.457-1.262,1.628,1.628,0,0,0-1.229-.473,1.625,1.625,0,0,0-1.22.469,1.737,1.737,0,0,0-.457,1.266,1.736,1.736,0,0,0,.448,1.245,1.633,1.633,0,0,0,1.245.473,1.629,1.629,0,0,0,1.224-.457A1.733,1.733,0,0,0,6.549,14.514ZM6.3,9.243A1.66,1.66,0,0,0,5.927,8.11a1.325,1.325,0,0,0-1.054-.427A1.335,1.335,0,0,0,3.827,8.1a1.651,1.651,0,0,0-.374,1.146A1.735,1.735,0,0,0,3.827,10.4a1.307,1.307,0,0,0,1.054.44,1.3,1.3,0,0,0,1.05-.44A1.747,1.747,0,0,0,6.3,9.243Z" transform="translate(788 2086)" fill="#12263f"/>
    <path id="Trazado_677454" data-name="Trazado 677454" d="M7.33,5.79V7.765H7.1a4.075,4.075,0,0,0-2.619.847,3.44,3.44,0,0,0-1.191,2.283,3.267,3.267,0,0,1,2.432-.979,3.078,3.078,0,0,1,2.507,1.129,4.525,4.525,0,0,1,.93,2.972,4.451,4.451,0,0,1-.51,2.133A3.661,3.661,0,0,1,7.2,17.635a4.2,4.2,0,0,1-2.113.531A3.919,3.919,0,0,1,2,16.838,5.155,5.155,0,0,1,.83,13.293V12.43a7.758,7.758,0,0,1,.743-3.474A5.447,5.447,0,0,1,3.706,6.624,6.251,6.251,0,0,1,6.931,5.79Zm-2.341,6.06a1.917,1.917,0,0,0-1.054.3,1.822,1.822,0,0,0-.7.8v.729a3.23,3.23,0,0,0,.473,1.877,1.529,1.529,0,0,0,1.328.675,1.512,1.512,0,0,0,1.249-.609,2.484,2.484,0,0,0,.477-1.578,2.479,2.479,0,0,0-.481-1.591A1.569,1.569,0,0,0,4.989,11.849Z" transform="translate(788 2125)" fill="#12263f"/>
    <path id="Trazado_677453" data-name="Trazado 677453" d="M7.919,13.451h1.37v1.934H7.919V18H5.52V15.385H.564L.457,13.875,5.5,5.914H7.919Zm-5.072,0H5.52V9.185l-.158.274Z" transform="translate(788 2165)" fill="#12263f"/>
    <path id="Trazado_677450" data-name="Trazado 677450" d="M9.106,18H.822V16.356l3.91-4.167a9.645,9.645,0,0,0,1.191-1.536,2.467,2.467,0,0,0,.386-1.245A1.846,1.846,0,0,0,5.9,8.143,1.468,1.468,0,0,0,4.74,7.682a1.584,1.584,0,0,0-1.282.56,2.219,2.219,0,0,0-.469,1.473H.581A3.962,3.962,0,0,1,1.108,7.7,3.715,3.715,0,0,1,2.6,6.267a4.529,4.529,0,0,1,2.183-.519,4.288,4.288,0,0,1,2.9.9A3.172,3.172,0,0,1,8.716,9.176,4.064,4.064,0,0,1,8.251,11a10.148,10.148,0,0,1-1.594,2.167l-2.748,2.9h5.2Z" transform="translate(788 2208)" fill="#12263f"/>
    <path id="Trazado_677449" data-name="Trazado 677449" d="M8.957,13a6.123,6.123,0,0,1-1.038,3.835,3.622,3.622,0,0,1-3.038,1.328,3.647,3.647,0,0,1-3.021-1.3A5.943,5.943,0,0,1,.789,13.127V10.9A6.042,6.042,0,0,1,1.839,7.06,3.649,3.649,0,0,1,4.864,5.748a3.652,3.652,0,0,1,3.021,1.3,5.925,5.925,0,0,1,1.071,3.731Zm-2.4-2.446a4.426,4.426,0,0,0-.411-2.189,1.389,1.389,0,0,0-1.282-.685,1.364,1.364,0,0,0-1.249.652,4.142,4.142,0,0,0-.427,2.04v2.941a4.646,4.646,0,0,0,.4,2.2,1.37,1.37,0,0,0,1.291.719,1.347,1.347,0,0,0,1.27-.69,4.535,4.535,0,0,0,.407-2.11Z" transform="translate(788 2243)" fill="#12263f"/>
    <g id="Trazado_677447" data-name="Trazado 677447" transform="translate(764 2230)" fill="none">
      <path d="M40.5,0C62.868,0,81,17.909,81,40S62.868,80,40.5,80,0,62.091,0,40,18.132,0,40.5,0Z" stroke="none"/>
      <path d="M 40.5 1 C 35.16555404663086 1 29.9913330078125 2.031585693359375 25.12103271484375 4.066123962402344 C 20.41717910766602 6.031120300292969 16.19268035888672 8.844200134277344 12.56488037109375 12.42720794677734 C 8.937934875488281 16.00937652587891 6.090591430664062 20.18021011352539 4.101943969726562 24.82386779785156 C 2.043647766113281 29.63015365600586 1 34.73614501953125 1 40 C 1 45.26385498046875 2.043647766113281 50.36984252929688 4.101943969726562 55.17613220214844 C 6.090591430664062 59.81978607177734 8.937934875488281 63.99062347412109 12.56488037109375 67.57279205322266 C 16.19268035888672 71.15579986572266 20.41717910766602 73.96887969970703 25.12103271484375 75.93387603759766 C 29.9913330078125 77.96841430664062 35.16555404663086 79 40.5 79 C 45.83444595336914 79 51.0086669921875 77.96841430664062 55.87896728515625 75.93387603759766 C 60.58282470703125 73.96887969970703 64.80731964111328 71.15579986572266 68.43511962890625 67.57279205322266 C 72.06206512451172 63.99062347412109 74.90940856933594 59.81978607177734 76.89805603027344 55.17613220214844 C 78.95635223388672 50.36984252929688 80 45.26385498046875 80 40 C 80 34.73614501953125 78.95635223388672 29.63015365600586 76.89805603027344 24.82386779785156 C 74.90940856933594 20.18021011352539 72.06206512451172 16.00937652587891 68.43511962890625 12.42720794677734 C 64.80731964111328 8.844200134277344 60.58282470703125 6.031120300292969 55.87896728515625 4.066123962402344 C 51.0086669921875 2.031585693359375 45.83444595336914 1 40.5 1 M 40.5 0 C 62.86753082275391 0 81 17.90861129760742 81 40 C 81 62.09138870239258 62.86753082275391 80 40.5 80 C 18.13246536254883 80 0 62.09138870239258 0 40 C 0 17.90861129760742 18.13246536254883 0 40.5 0 Z" stroke="none" fill="#3f1a0e"/>
    </g>
    <g id="Trazado_677445" data-name="Trazado 677445" transform="translate(725 2191)" fill="none">
      <path d="M80.5,0A80.5,80.5,0,1,1,0,80.5,80.5,80.5,0,0,1,80.5,0Z" stroke="none"/>
      <path d="M 80.5 1 C 75.10537719726562 1 69.71443939208984 1.543411254882812 64.47691345214844 2.61517333984375 C 59.37302398681641 3.659576416015625 54.35266876220703 5.217971801757812 49.55531311035156 7.247100830078125 C 44.84483337402344 9.239456176757812 40.30149841308594 11.70552062988281 36.05149841308594 14.57675170898438 C 31.84162902832031 17.4208984375 27.88279724121094 20.68722534179688 24.28501892089844 24.28501892089844 C 20.68722534179688 27.88279724121094 17.4208984375 31.84162902832031 14.57675170898438 36.05149841308594 C 11.70552062988281 40.30149841308594 9.239456176757812 44.84483337402344 7.247100830078125 49.55531311035156 C 5.217971801757812 54.35266876220703 3.659576416015625 59.37302398681641 2.61517333984375 64.47691345214844 C 1.543411254882812 69.71443939208984 1 75.10537719726562 1 80.5 C 1 85.89462280273438 1.543411254882812 91.28556060791016 2.61517333984375 96.52308654785156 C 3.659576416015625 101.6269836425781 5.217971801757812 106.6473388671875 7.247100830078125 111.4446868896484 C 9.239456176757812 116.1551666259766 11.70552062988281 120.6985015869141 14.57675170898438 124.9485015869141 C 17.4208984375 129.1583709716797 20.68722534179688 133.1172027587891 24.28501892089844 136.7149810791016 C 27.88279724121094 140.3127746582031 31.84162902832031 143.5791015625 36.05149841308594 146.4232482910156 C 40.30149841308594 149.2944793701172 44.84483337402344 151.7605438232422 49.55531311035156 153.7528991699219 C 54.35266876220703 155.7820281982422 59.37302398681641 157.3404235839844 64.47691345214844 158.3848266601562 C 69.71443939208984 159.4565887451172 75.10537719726562 160 80.5 160 C 85.89462280273438 160 91.28556060791016 159.4565887451172 96.52308654785156 158.3848266601562 C 101.6269836425781 157.3404235839844 106.6473388671875 155.7820281982422 111.4446868896484 153.7528991699219 C 116.1551666259766 151.7605438232422 120.6985015869141 149.2944793701172 124.9485015869141 146.4232482910156 C 129.1583709716797 143.5791015625 133.1172027587891 140.3127746582031 136.7149810791016 136.7149810791016 C 140.3127746582031 133.1172027587891 143.5791015625 129.1583709716797 146.4232482910156 124.9485015869141 C 149.2944793701172 120.6985015869141 151.7605438232422 116.1551666259766 153.7528991699219 111.4446868896484 C 155.7820281982422 106.6473388671875 157.3404235839844 101.6269836425781 158.3848266601562 96.52308654785156 C 159.4565887451172 91.28556060791016 160 85.89462280273438 160 80.5 C 160 75.10537719726562 159.4565887451172 69.71443939208984 158.3848266601562 64.47691345214844 C 157.3404235839844 59.37302398681641 155.7820281982422 54.35266876220703 153.7528991699219 49.55531311035156 C 151.7605438232422 44.84483337402344 149.2944793701172 40.30149841308594 146.4232482910156 36.05149841308594 C 143.5791015625 31.84162902832031 140.3127746582031 27.88279724121094 136.7149810791016 24.28501892089844 C 133.1172027587891 20.68722534179688 129.1583709716797 17.4208984375 124.9485015869141 14.57675170898438 C 120.6985015869141 11.70552062988281 116.1551666259766 9.239456176757812 111.4446868896484 7.247100830078125 C 106.6473388671875 5.217971801757812 101.6269836425781 3.659576416015625 96.52308654785156 2.61517333984375 C 91.28556060791016 1.543411254882812 85.89462280273438 1 80.5 1 M 80.5 0 C 124.9589157104492 0 161 36.04108428955078 161 80.5 C 161 124.9589157104492 124.9589157104492 161 80.5 161 C 36.04108428955078 161 0 124.9589157104492 0 80.5 C 0 36.04108428955078 36.04108428955078 0 80.5 0 Z" stroke="none" fill="#3f1a0e"/>
    </g>
    <g id="Trazado_677443" data-name="Trazado 677443" transform="translate(685 2151)" fill="none">
      <path d="M120.5,0A120.5,120.5,0,1,1,0,120.5,120.5,120.5,0,0,1,120.5,0Z" stroke="none"/>
      <path d="M 120.5 1 C 112.3914337158203 1 104.2882537841797 1.816848754882812 96.41552734375 3.427841186523438 C 88.743408203125 4.997787475585938 81.19683837890625 7.340347290039062 73.98550415039062 10.3905029296875 C 66.90487670898438 13.38534545898438 60.07550048828125 17.09222412109375 53.68711853027344 21.40812683105469 C 47.35916137695312 25.68321228027344 41.40859985351562 30.59288024902344 36.00074768066406 36.00074768066406 C 30.59288024902344 41.40859985351562 25.68321228027344 47.35916137695312 21.40812683105469 53.68711853027344 C 17.09222412109375 60.07550048828125 13.38534545898438 66.90487670898438 10.3905029296875 73.98550415039062 C 7.340347290039062 81.19683837890625 4.997787475585938 88.743408203125 3.427841186523438 96.41552734375 C 1.816848754882812 104.2882537841797 1 112.3914337158203 1 120.5 C 1 128.6085662841797 1.816848754882812 136.7117462158203 3.427841186523438 144.58447265625 C 4.997787475585938 152.256591796875 7.340347290039062 159.8031616210938 10.3905029296875 167.0144958496094 C 13.38534545898438 174.0951232910156 17.09222412109375 180.9244995117188 21.40812683105469 187.3128662109375 C 25.68321228027344 193.6408386230469 30.59288024902344 199.5914001464844 36.00074768066406 204.9992523193359 C 41.40859985351562 210.4071197509766 47.35916137695312 215.3167877197266 53.68711853027344 219.5918731689453 C 60.07550048828125 223.9077758789062 66.90487670898438 227.6146545410156 73.98550415039062 230.6094970703125 C 81.19683837890625 233.6596527099609 88.743408203125 236.0022125244141 96.41552734375 237.5721588134766 C 104.2882537841797 239.1831512451172 112.3914337158203 240 120.5 240 C 128.6085662841797 240 136.7117462158203 239.1831512451172 144.58447265625 237.5721588134766 C 152.256591796875 236.0022125244141 159.8031616210938 233.6596527099609 167.0144958496094 230.6094970703125 C 174.0951232910156 227.6146545410156 180.9244995117188 223.9077758789062 187.3128662109375 219.5918731689453 C 193.6408386230469 215.3167877197266 199.5914001464844 210.4071197509766 204.9992523193359 204.9992523193359 C 210.4071197509766 199.5914001464844 215.3167877197266 193.6408386230469 219.5918731689453 187.3128662109375 C 223.9077758789062 180.9244995117188 227.6146545410156 174.0951232910156 230.6094970703125 167.0144958496094 C 233.6596527099609 159.8031616210938 236.0022125244141 152.256591796875 237.5721588134766 144.58447265625 C 239.1831512451172 136.7117462158203 240 128.6085662841797 240 120.5 C 240 112.3914337158203 239.1831512451172 104.2882537841797 237.5721588134766 96.41552734375 C 236.0022125244141 88.743408203125 233.6596527099609 81.19683837890625 230.6094970703125 73.98550415039062 C 227.6146545410156 66.90487670898438 223.9077758789062 60.07550048828125 219.5918731689453 53.68711853027344 C 215.3167877197266 47.35916137695312 210.4071197509766 41.40859985351562 204.9992523193359 36.00074768066406 C 199.5914001464844 30.59288024902344 193.6408386230469 25.68321228027344 187.3128662109375 21.40812683105469 C 180.9244995117188 17.09222412109375 174.0951232910156 13.38534545898438 167.0144958496094 10.3905029296875 C 159.8031616210938 7.340347290039062 152.256591796875 4.997787475585938 144.58447265625 3.427841186523438 C 136.7117462158203 1.816848754882812 128.6085662841797 1 120.5 1 M 120.5 0 C 187.0503082275391 0 241 53.94969177246094 241 120.5 C 241 187.0503082275391 187.0503082275391 241 120.5 241 C 53.94969177246094 241 0 187.0503082275391 0 120.5 C 0 53.94969177246094 53.94969177246094 0 120.5 0 Z" stroke="none" fill="#3f1a0e"/>
    </g>
    <g id="Trazado_677442" data-name="Trazado 677442" transform="translate(645 2110)" fill="none">
      <path d="M160.5,0A160.5,160.5,0,1,1,0,160.5,160.5,160.5,0,0,1,160.5,0Z" stroke="none"/>
      <path d="M 160.5 1 C 149.6774597167969 1 138.8620452880859 2.090240478515625 128.3541259765625 4.240509033203125 C 118.1137847900391 6.335968017578125 108.0410461425781 9.46270751953125 98.41571044921875 13.53387451171875 C 88.96487426757812 17.53125 79.84950256347656 22.47891235351562 71.32270812988281 28.239501953125 C 62.876708984375 33.94549560546875 54.93441772460938 40.49850463867188 47.71646118164062 47.71646118164062 C 40.49850463867188 54.93441772460938 33.94549560546875 62.876708984375 28.239501953125 71.32270812988281 C 22.47891235351562 79.84950256347656 17.53125 88.96487426757812 13.53387451171875 98.41571044921875 C 9.46270751953125 108.0410461425781 6.335968017578125 118.1137847900391 4.240509033203125 128.3541259765625 C 2.090240478515625 138.8620452880859 1 149.6774597167969 1 160.5 C 1 171.3225402832031 2.090240478515625 182.1379547119141 4.240509033203125 192.6458740234375 C 6.335968017578125 202.8861999511719 9.46270751953125 212.9589538574219 13.53387451171875 222.5842895507812 C 17.53125 232.0351257324219 22.47891235351562 241.1504974365234 28.239501953125 249.6772918701172 C 33.94549560546875 258.123291015625 40.49850463867188 266.0655822753906 47.71646118164062 273.2835388183594 C 54.93441772460938 280.5014953613281 62.876708984375 287.0545043945312 71.32270812988281 292.760498046875 C 79.84950256347656 298.5210876464844 88.96487426757812 303.46875 98.41571044921875 307.4661254882812 C 108.0410461425781 311.5372924804688 118.1137847900391 314.6640319824219 128.3541259765625 316.7594909667969 C 138.8620452880859 318.9097595214844 149.6774597167969 320 160.5 320 C 171.3225402832031 320 182.1379547119141 318.9097595214844 192.6458740234375 316.7594909667969 C 202.8861999511719 314.6640319824219 212.9589538574219 311.5372924804688 222.5842895507812 307.4661254882812 C 232.0351257324219 303.46875 241.1504974365234 298.5210876464844 249.6772918701172 292.760498046875 C 258.123291015625 287.0545043945312 266.0655822753906 280.5014953613281 273.2835388183594 273.2835388183594 C 280.5014953613281 266.0655822753906 287.0545043945312 258.123291015625 292.760498046875 249.6772918701172 C 298.5210876464844 241.1504974365234 303.46875 232.0351257324219 307.4661254882812 222.5842895507812 C 311.5372924804688 212.9589538574219 314.6640319824219 202.8861999511719 316.7594909667969 192.6458740234375 C 318.9097595214844 182.1379547119141 320 171.3225402832031 320 160.5 C 320 149.6774597167969 318.9097595214844 138.8620452880859 316.7594909667969 128.3541259765625 C 314.6640319824219 118.1137847900391 311.5372924804688 108.0410461425781 307.4661254882812 98.41571044921875 C 303.46875 88.96487426757812 298.5210876464844 79.84950256347656 292.760498046875 71.32270812988281 C 287.0545043945312 62.876708984375 280.5014953613281 54.93441772460938 273.2835388183594 47.71646118164062 C 266.0655822753906 40.49850463867188 258.123291015625 33.94549560546875 249.6772918701172 28.239501953125 C 241.1504974365234 22.47891235351562 232.0351257324219 17.53125 222.5842895507812 13.53387451171875 C 212.9589538574219 9.46270751953125 202.8861999511719 6.335968017578125 192.6458740234375 4.240509033203125 C 182.1379547119141 2.090240478515625 171.3225402832031 1 160.5 1 M 160.5 0 C 249.1417083740234 0 321 71.85829162597656 321 160.5 C 321 249.1417083740234 249.1417083740234 321 160.5 321 C 71.85829162597656 321 0 249.1417083740234 0 160.5 C 0 71.85829162597656 71.85829162597656 0 160.5 0 Z" stroke="none" fill="#3f1a0e"/>
    </g>
    <g id="Trazado_677440" data-name="Trazado 677440" transform="translate(605 2071)" fill="none">
      <path d="M201.5,0C312.785,0,403,89.991,403,201S312.785,402,201.5,402,0,312.009,0,201,90.215,0,201.5,0Z" stroke="none"/>
      <path d="M 201.5 1 C 187.8954925537109 1 174.2998504638672 2.367156982421875 161.0906982421875 5.063385009765625 C 148.2178039550781 7.6910400390625 135.5556030273438 11.61184692382812 123.4558410644531 16.71694946289062 C 111.5755615234375 21.72940063476562 100.1169128417969 27.93350219726562 89.39828491210938 35.15689086914062 C 78.78125 42.31185913085938 68.79745483398438 50.52880859375 59.72421264648438 59.57955932617188 C 50.6510009765625 68.6302490234375 42.41363525390625 78.58920288085938 35.24099731445312 89.17974853515625 C 27.999755859375 99.87161254882812 21.78036499023438 111.3015441894531 16.7554931640625 123.152099609375 C 11.63790893554688 135.2214965820312 7.70745849609375 147.8518981933594 5.0733642578125 160.6924438476562 C 2.370513916015625 173.8683471679688 1 187.4297485351562 1 201 C 1 214.5702514648438 2.370513916015625 228.1316528320312 5.0733642578125 241.3075561523438 C 7.70745849609375 254.1481018066406 11.63790893554688 266.7785034179688 16.7554931640625 278.847900390625 C 21.78036499023438 290.6984558105469 27.999755859375 302.12841796875 35.24099731445312 312.8202514648438 C 42.41363525390625 323.4107971191406 50.6510009765625 333.3697509765625 59.72421264648438 342.4204406738281 C 68.79745483398438 351.47119140625 78.78125 359.6881408691406 89.39828491210938 366.8431091308594 C 100.1169128417969 374.0664978027344 111.5755615234375 380.2705993652344 123.4558410644531 385.2830505371094 C 135.5556030273438 390.3881530761719 148.2178039550781 394.3089599609375 161.0906982421875 396.9366149902344 C 174.2998504638672 399.6328430175781 187.8954925537109 401 201.5 401 C 215.1045074462891 401 228.7001037597656 399.6328430175781 241.9092559814453 396.9366149902344 C 254.7821960449219 394.3089599609375 267.4443969726562 390.3881530761719 279.5441589355469 385.2830505371094 C 291.4244384765625 380.2705993652344 302.883056640625 374.0664978027344 313.6016845703125 366.8431091308594 C 324.21875 359.6881408691406 334.2025451660156 351.47119140625 343.2757873535156 342.4204406738281 C 352.3489990234375 333.3697509765625 360.5863647460938 323.4107971191406 367.7590026855469 312.8202514648438 C 375.000244140625 302.12841796875 381.2196655273438 290.6984558105469 386.2444458007812 278.847900390625 C 391.3620910644531 266.7785034179688 395.2925415039062 254.1481018066406 397.9266357421875 241.3075561523438 C 400.6294860839844 228.1316528320312 402 214.5702514648438 402 201 C 402 187.4297485351562 400.6294860839844 173.8683471679688 397.9266357421875 160.6924438476562 C 395.2925415039062 147.8518981933594 391.3620910644531 135.2214965820312 386.2444458007812 123.152099609375 C 381.2196655273438 111.3015441894531 375.000244140625 99.87161254882812 367.7590026855469 89.17974853515625 C 360.5863647460938 78.58920288085938 352.3489990234375 68.6302490234375 343.2757873535156 59.57955932617188 C 334.2025451660156 50.52880859375 324.21875 42.31185913085938 313.6016845703125 35.15689086914062 C 302.883056640625 27.93350219726562 291.4244384765625 21.72940063476562 279.5441589355469 16.71694946289062 C 267.4443969726562 11.61184692382812 254.7821960449219 7.6910400390625 241.9092559814453 5.063385009765625 C 228.7001037597656 2.367156982421875 215.1045074462891 1 201.5 1 M 201.5 0 C 312.7853393554688 0 403 89.99081420898438 403 201 C 403 312.0092163085938 312.7853393554688 402 201.5 402 C 90.214599609375 402 0 312.0092163085938 0 201 C 0 89.99081420898438 90.214599609375 0 201.5 0 Z" stroke="none" fill="#3f1a0e"/>
    </g>
    <path id="Trazado_677415" data-name="Trazado 677415" d="M-187.5-10349v402.205" transform="translate(993.056 12419.736)" fill="none" stroke="#3f1a0e" stroke-width="1"/>
    <path id="Trazado_677416" data-name="Trazado 677416" d="M0,0V401.193" transform="matrix(0.809, -0.588, 0.588, 0.809, 686.897, 2109.502)" fill="none" stroke="#3f1a0e" stroke-width="1"/>
    <path id="Trazado_677417" data-name="Trazado 677417" d="M0,401.194V0" transform="matrix(-0.809, -0.588, 0.588, -0.809, 686.898, 2434.075)" fill="none" stroke="#3f1a0e" stroke-width="1"/>
    <path id="Trazado_677418" data-name="Trazado 677418" d="M0,401.194V0" transform="matrix(-0.309, -0.951, 0.951, -0.309, 614.027, 2333.777)" fill="none" stroke="#3f1a0e" stroke-width="1"/>
    <path id="Trazado_677419" data-name="Trazado 677419" d="M0,0V401.193" transform="matrix(0.309, -0.951, 0.951, 0.309, 614.026, 2209.801)" fill="none" stroke="#3f1a0e" stroke-width="1"/>
    <path id="Trazado_677420" data-name="Trazado 677420" d="M-281.2-10296.571a521.249,521.249,0,0,1,50.839-19.623c26.7-8.572,55.973-14.664,55.973-14.664s22.7,31.243,34.769,60.646a194.594,194.594,0,0,1,13.522,56.969,90.323,90.323,0,0,1,6.3,18.858,230.108,230.108,0,0,1,3.685,26.085v36.242s-6.631,8.006-15.05,12.08-18.625,4.216-18.625,4.216,5.878,32.751,0,69.117-23.514,76.349-23.514,76.349-27.271-21.846-42.343-46.284-17.946-51.47-17.946-51.47-22.189-1.415-40.609-10.952-33.074-27.2-33.074-27.2,22.827-22.311,51.272-34.844,62.511-15.287,62.511-15.287-35.163-19.384-57.089-54.444S-281.2-10296.571-281.2-10296.571Z" transform="translate(979.746 12421.754)" fill="none" stroke="#557bcd" stroke-linecap="round" stroke-linejoin="round" stroke-width="2"/>
    <path id="Trazado_677421" data-name="Trazado 677421" d="M-248.019-9523.5a175.924,175.924,0,0,1,33.117-4.693c17.266-.619,35.948,2.217,35.948,2.217s12.828,10.992,21.306,23.669a109.794,109.794,0,0,1,12.609,27.036s36.11,14.786,65.745,38.946,52.793,57.693,52.793,57.693a139.545,139.545,0,0,1-52.793,12.3c-29.635.792-65.745-9.13-65.745-9.13s-2.5,21.056-10.982,38.047-22.933,29.919-22.933,29.919-16.863-11.028-28.874-24.726S-227-9362.287-227-9362.287s-18.508-2.526-34.794-9.345-30.349-17.93-30.349-17.93a126.9,126.9,0,0,1,46.676-28.083c28.3-9.277,66.512-9.028,66.512-9.028s-31.4-20.231-48.671-44.438S-248.019-9523.5-248.019-9523.5Z" transform="translate(983 11700)" fill="none" stroke="#fe7500" stroke-linecap="round" stroke-linejoin="round" stroke-width="2"/>
    <path id="Trazado_677460" data-name="Trazado 677460" d="M10.567,13.974a4.277,4.277,0,0,1-1.44,3.071A5.058,5.058,0,0,1,5.7,18.166,4.548,4.548,0,0,1,2.046,16.6a6.416,6.416,0,0,1-1.332-4.3v-.739A7.245,7.245,0,0,1,1.328,8.5,4.6,4.6,0,0,1,3.084,6.458a4.918,4.918,0,0,1,2.652-.71,4.927,4.927,0,0,1,3.37,1.121,4.6,4.6,0,0,1,1.478,3.146H8.093a2.524,2.524,0,0,0-.652-1.7A2.413,2.413,0,0,0,5.736,7.79a2.116,2.116,0,0,0-1.864.892,5,5,0,0,0-.635,2.768v.913a5.352,5.352,0,0,0,.594,2.864,2.077,2.077,0,0,0,1.872.9,2.458,2.458,0,0,0,1.722-.527,2.381,2.381,0,0,0,.652-1.631ZM17.249,18a2.664,2.664,0,0,1-.241-.805,2.9,2.9,0,0,1-2.266.971,3.189,3.189,0,0,1-2.187-.764,2.456,2.456,0,0,1-.867-1.926,2.538,2.538,0,0,1,1.058-2.191,5.222,5.222,0,0,1,3.059-.772h1.1V12a1.48,1.48,0,0,0-.32-1,1.257,1.257,0,0,0-1.009-.374,1.429,1.429,0,0,0-.95.291.987.987,0,0,0-.344.8h-2.4a2.41,2.41,0,0,1,.481-1.444A3.182,3.182,0,0,1,13.729,9.23a4.961,4.961,0,0,1,1.976-.378,3.92,3.92,0,0,1,2.635.834,2.918,2.918,0,0,1,.975,2.345v3.893a4.294,4.294,0,0,0,.357,1.934V18Zm-1.984-1.668a2.066,2.066,0,0,0,.979-.237,1.554,1.554,0,0,0,.664-.635V13.916h-.9q-1.8,0-1.917,1.245l-.008.141a.96.96,0,0,0,.315.739A1.225,1.225,0,0,0,15.265,16.332ZM23.69,18H21.283V5.25H23.69ZM28.2,18H25.791V9.019H28.2ZM25.649,6.694a1.181,1.181,0,0,1,.361-.888,1.556,1.556,0,0,1,1.963,0,1.175,1.175,0,0,1,.365.888,1.178,1.178,0,0,1-.369.9,1.539,1.539,0,0,1-1.951,0A1.178,1.178,0,0,1,25.649,6.694ZM30.754,18V10.778H29.418V9.019h1.336V8.6A3.368,3.368,0,0,1,31.8,5.993a4.191,4.191,0,0,1,2.893-.917,9.6,9.6,0,0,1,2.723.49l-.349,1.984A10.623,10.623,0,0,0,35.8,7.238a6.2,6.2,0,0,0-.963-.071q-1.677,0-1.677,1.486v.365H34.93v1.76H33.162V18Zm7.778,0H36.125V9.019h2.407Zm5.719-1.768a1.573,1.573,0,0,0,1.079-.365,1.28,1.28,0,0,0,.432-.971h2.25a3.077,3.077,0,0,1-.5,1.673,3.286,3.286,0,0,1-1.341,1.179,4.2,4.2,0,0,1-1.88.419,3.9,3.9,0,0,1-3.038-1.224,4.845,4.845,0,0,1-1.112-3.383V13.4a4.79,4.79,0,0,1,1.1-3.312,3.854,3.854,0,0,1,3.03-1.237,3.778,3.778,0,0,1,2.7.959,3.4,3.4,0,0,1,1.033,2.552h-2.25a1.648,1.648,0,0,0-.432-1.139,1.6,1.6,0,0,0-2.362.173,3.541,3.541,0,0,0-.427,1.983v.249a3.586,3.586,0,0,0,.423,2A1.463,1.463,0,0,0,44.251,16.232ZM54.586,18a2.664,2.664,0,0,1-.241-.805,2.9,2.9,0,0,1-2.266.971,3.189,3.189,0,0,1-2.187-.764,2.456,2.456,0,0,1-.867-1.926,2.538,2.538,0,0,1,1.058-2.191,5.222,5.222,0,0,1,3.059-.772h1.1V12a1.48,1.48,0,0,0-.32-1,1.257,1.257,0,0,0-1.009-.374,1.429,1.429,0,0,0-.95.291.987.987,0,0,0-.344.8h-2.4a2.41,2.41,0,0,1,.481-1.444A3.182,3.182,0,0,1,51.066,9.23a4.961,4.961,0,0,1,1.976-.378,3.92,3.92,0,0,1,2.635.834,2.918,2.918,0,0,1,.975,2.345v3.893a4.294,4.294,0,0,0,.357,1.934V18ZM52.6,16.332a2.066,2.066,0,0,0,.979-.237,1.554,1.554,0,0,0,.664-.635V13.916h-.9q-1.8,0-1.917,1.245l-.008.141a.96.96,0,0,0,.315.739A1.225,1.225,0,0,0,52.6,16.332Zm9.629-.1a1.573,1.573,0,0,0,1.079-.365,1.28,1.28,0,0,0,.432-.971h2.25a3.077,3.077,0,0,1-.5,1.673,3.286,3.286,0,0,1-1.341,1.179,4.2,4.2,0,0,1-1.88.419,3.9,3.9,0,0,1-3.038-1.224,4.845,4.845,0,0,1-1.112-3.383V13.4a4.79,4.79,0,0,1,1.1-3.312,3.854,3.854,0,0,1,3.03-1.237,3.778,3.778,0,0,1,2.7.959,3.4,3.4,0,0,1,1.033,2.552h-2.25a1.648,1.648,0,0,0-.432-1.139,1.6,1.6,0,0,0-2.362.173,3.541,3.541,0,0,0-.427,1.983v.249a3.586,3.586,0,0,0,.423,2A1.463,1.463,0,0,0,62.231,16.232ZM69.893,18H67.485V9.019h2.407ZM67.344,6.694a1.181,1.181,0,0,1,.361-.888,1.556,1.556,0,0,1,1.963,0,1.175,1.175,0,0,1,.365.888,1.178,1.178,0,0,1-.369.9,1.539,1.539,0,0,1-1.951,0A1.178,1.178,0,0,1,67.344,6.694Zm4.15,6.732a5.326,5.326,0,0,1,.515-2.382,3.768,3.768,0,0,1,1.482-1.619,4.323,4.323,0,0,1,2.245-.573A4.09,4.09,0,0,1,78.7,9.965a4.464,4.464,0,0,1,1.282,3.021L80,13.6a4.694,4.694,0,0,1-1.154,3.316,4.472,4.472,0,0,1-6.2,0,4.777,4.777,0,0,1-1.158-3.387Zm2.4.17a3.357,3.357,0,0,0,.481,1.958,1.73,1.73,0,0,0,2.739.008,3.674,3.674,0,0,0,.49-2.141,3.324,3.324,0,0,0-.49-1.945,1.592,1.592,0,0,0-1.378-.69,1.566,1.566,0,0,0-1.361.686A3.736,3.736,0,0,0,73.894,13.6ZM76.209,5.25h2.615l-2.3,2.573H74.574Zm7.479,3.769.075,1.038a3.136,3.136,0,0,1,2.582-1.2,2.606,2.606,0,0,1,2.125.838,3.912,3.912,0,0,1,.714,2.507V18h-2.4V12.256a1.556,1.556,0,0,0-.332-1.108,1.486,1.486,0,0,0-1.1-.344,1.65,1.65,0,0,0-1.519.863V18h-2.4V9.019Z" transform="translate(685 1948)" fill="#12263f"/>
    <path id="Trazado_677461" data-name="Trazado 677461" d="M10.567,13.974a4.277,4.277,0,0,1-1.44,3.071A5.058,5.058,0,0,1,5.7,18.166,4.548,4.548,0,0,1,2.046,16.6a6.416,6.416,0,0,1-1.332-4.3v-.739A7.245,7.245,0,0,1,1.328,8.5,4.6,4.6,0,0,1,3.084,6.458a4.918,4.918,0,0,1,2.652-.71,4.927,4.927,0,0,1,3.37,1.121,4.6,4.6,0,0,1,1.478,3.146H8.093a2.524,2.524,0,0,0-.652-1.7A2.413,2.413,0,0,0,5.736,7.79a2.116,2.116,0,0,0-1.864.892,5,5,0,0,0-.635,2.768v.913a5.352,5.352,0,0,0,.594,2.864,2.077,2.077,0,0,0,1.872.9,2.458,2.458,0,0,0,1.722-.527,2.381,2.381,0,0,0,.652-1.631ZM17.249,18a2.664,2.664,0,0,1-.241-.805,2.9,2.9,0,0,1-2.266.971,3.189,3.189,0,0,1-2.187-.764,2.456,2.456,0,0,1-.867-1.926,2.538,2.538,0,0,1,1.058-2.191,5.222,5.222,0,0,1,3.059-.772h1.1V12a1.48,1.48,0,0,0-.32-1,1.257,1.257,0,0,0-1.009-.374,1.429,1.429,0,0,0-.95.291.987.987,0,0,0-.344.8h-2.4a2.41,2.41,0,0,1,.481-1.444A3.182,3.182,0,0,1,13.729,9.23a4.961,4.961,0,0,1,1.976-.378,3.92,3.92,0,0,1,2.635.834,2.918,2.918,0,0,1,.975,2.345v3.893a4.294,4.294,0,0,0,.357,1.934V18Zm-1.984-1.668a2.066,2.066,0,0,0,.979-.237,1.554,1.554,0,0,0,.664-.635V13.916h-.9q-1.8,0-1.917,1.245l-.008.141a.96.96,0,0,0,.315.739A1.225,1.225,0,0,0,15.265,16.332ZM23.69,18H21.283V5.25H23.69ZM28.2,18H25.791V9.019H28.2ZM25.649,6.694a1.181,1.181,0,0,1,.361-.888,1.556,1.556,0,0,1,1.963,0,1.175,1.175,0,0,1,.365.888,1.178,1.178,0,0,1-.369.9,1.539,1.539,0,0,1-1.951,0A1.178,1.178,0,0,1,25.649,6.694ZM30.754,18V10.778H29.418V9.019h1.336V8.6A3.368,3.368,0,0,1,31.8,5.993a4.191,4.191,0,0,1,2.893-.917,9.6,9.6,0,0,1,2.723.49l-.349,1.984A10.623,10.623,0,0,0,35.8,7.238a6.2,6.2,0,0,0-.963-.071q-1.677,0-1.677,1.486v.365H34.93v1.76H33.162V18Zm7.778,0H36.125V9.019h2.407Zm5.719-1.768a1.573,1.573,0,0,0,1.079-.365,1.28,1.28,0,0,0,.432-.971h2.25a3.077,3.077,0,0,1-.5,1.673,3.286,3.286,0,0,1-1.341,1.179,4.2,4.2,0,0,1-1.88.419,3.9,3.9,0,0,1-3.038-1.224,4.845,4.845,0,0,1-1.112-3.383V13.4a4.79,4.79,0,0,1,1.1-3.312,3.854,3.854,0,0,1,3.03-1.237,3.778,3.778,0,0,1,2.7.959,3.4,3.4,0,0,1,1.033,2.552h-2.25a1.648,1.648,0,0,0-.432-1.139,1.6,1.6,0,0,0-2.362.173,3.541,3.541,0,0,0-.427,1.983v.249a3.586,3.586,0,0,0,.423,2A1.463,1.463,0,0,0,44.251,16.232ZM54.586,18a2.664,2.664,0,0,1-.241-.805,2.9,2.9,0,0,1-2.266.971,3.189,3.189,0,0,1-2.187-.764,2.456,2.456,0,0,1-.867-1.926,2.538,2.538,0,0,1,1.058-2.191,5.222,5.222,0,0,1,3.059-.772h1.1V12a1.48,1.48,0,0,0-.32-1,1.257,1.257,0,0,0-1.009-.374,1.429,1.429,0,0,0-.95.291.987.987,0,0,0-.344.8h-2.4a2.41,2.41,0,0,1,.481-1.444A3.182,3.182,0,0,1,51.066,9.23a4.961,4.961,0,0,1,1.976-.378,3.92,3.92,0,0,1,2.635.834,2.918,2.918,0,0,1,.975,2.345v3.893a4.294,4.294,0,0,0,.357,1.934V18ZM52.6,16.332a2.066,2.066,0,0,0,.979-.237,1.554,1.554,0,0,0,.664-.635V13.916h-.9q-1.8,0-1.917,1.245l-.008.141a.96.96,0,0,0,.315.739A1.225,1.225,0,0,0,52.6,16.332Zm9.629-.1a1.573,1.573,0,0,0,1.079-.365,1.28,1.28,0,0,0,.432-.971h2.25a3.077,3.077,0,0,1-.5,1.673,3.286,3.286,0,0,1-1.341,1.179,4.2,4.2,0,0,1-1.88.419,3.9,3.9,0,0,1-3.038-1.224,4.845,4.845,0,0,1-1.112-3.383V13.4a4.79,4.79,0,0,1,1.1-3.312,3.854,3.854,0,0,1,3.03-1.237,3.778,3.778,0,0,1,2.7.959,3.4,3.4,0,0,1,1.033,2.552h-2.25a1.648,1.648,0,0,0-.432-1.139,1.6,1.6,0,0,0-2.362.173,3.541,3.541,0,0,0-.427,1.983v.249a3.586,3.586,0,0,0,.423,2A1.463,1.463,0,0,0,62.231,16.232ZM69.893,18H67.485V9.019h2.407ZM67.344,6.694a1.181,1.181,0,0,1,.361-.888,1.556,1.556,0,0,1,1.963,0,1.175,1.175,0,0,1,.365.888,1.178,1.178,0,0,1-.369.9,1.539,1.539,0,0,1-1.951,0A1.178,1.178,0,0,1,67.344,6.694Zm4.15,6.732a5.326,5.326,0,0,1,.515-2.382,3.768,3.768,0,0,1,1.482-1.619,4.323,4.323,0,0,1,2.245-.573A4.09,4.09,0,0,1,78.7,9.965a4.464,4.464,0,0,1,1.282,3.021L80,13.6a4.694,4.694,0,0,1-1.154,3.316,4.472,4.472,0,0,1-6.2,0,4.777,4.777,0,0,1-1.158-3.387Zm2.4.17a3.357,3.357,0,0,0,.481,1.958,1.73,1.73,0,0,0,2.739.008,3.674,3.674,0,0,0,.49-2.141,3.324,3.324,0,0,0-.49-1.945,1.592,1.592,0,0,0-1.378-.69,1.566,1.566,0,0,0-1.361.686A3.736,3.736,0,0,0,73.894,13.6ZM76.209,5.25h2.615l-2.3,2.573H74.574Zm7.479,3.769.075,1.038a3.136,3.136,0,0,1,2.582-1.2,2.606,2.606,0,0,1,2.125.838,3.912,3.912,0,0,1,.714,2.507V18h-2.4V12.256a1.556,1.556,0,0,0-.332-1.108,1.486,1.486,0,0,0-1.1-.344,1.65,1.65,0,0,0-1.519.863V18h-2.4V9.019Z" transform="translate(879 1948)" fill="#12263f"/>
    <path id="Trazado_677462" data-name="Trazado 677462" d="M0,0H30V13H0Z" transform="translate(633 1953)" fill="#426ac7"/>
    <path id="Trazado_677463" data-name="Trazado 677463" d="M0,0H30V13H0Z" transform="translate(830 1953)" fill="#fe7500"/>
  </g>
</svg>
